<mxfile host="app.diagrams.net" modified="2024-08-01T14:55:47.934Z" agent="Mozilla/5.0 (Windows NT 10.0; Win64; x64) AppleWebKit/537.36 (KHTML, like Gecko) Chrome/127.0.0.0 Safari/537.36" version="24.5.4" etag="6wdTKywPX1oBFfQuoycR" type="github">
  <diagram name="Page-1" id="xJCPAK7uy1GloRghpup3">
    <mxGraphModel>
      <root>
        <mxCell id="0" />
        <mxCell id="1" parent="0" />
      </root>
    </mxGraphModel>
  </diagram>
</mxfile>
